<?xml version="1.0" standalone="no"?>
<!DOCTYPE svg PUBLIC "-//W3C//DTD SVG 20010904//EN"
 "http://www.w3.org/TR/2001/REC-SVG-20010904/DTD/svg10.dtd">
<svg version="1.0" xmlns="http://www.w3.org/2000/svg"
 width="640.000000pt" height="640.000000pt" viewBox="0 0 640.000000 640.000000"
 preserveAspectRatio="xMidYMid meet">
<metadata>
Created by potrace 1.14, written by Peter Selinger 2001-2017
</metadata>
<g transform="translate(0.000000,640.000000) scale(0.100000,-0.100000)"
fill="#000000" stroke="none">
<path d="M0 3200 l0 -3200 3200 0 3200 0 0 3200 0 3200 -3200 0 -3200 0 0
-3200z m3940 2900 c11 -11 23 -20 28 -20 4 0 17 -24 30 -53 16 -38 22 -71 22
-122 0 -44 5 -78 14 -90 7 -11 17 -60 21 -110 4 -49 12 -93 18 -97 16 -10 16
-190 1 -195 -7 -2 -14 20 -19 61 -3 36 -13 70 -21 77 -9 7 -14 31 -14 69 0 44
-4 61 -20 75 -16 14 -20 31 -20 81 0 44 -5 67 -16 79 -10 10 -18 40 -22 82 -7
94 -19 103 -130 103 -48 0 -103 -5 -122 -11 -19 -6 -132 -15 -251 -19 -119 -4
-240 -13 -270 -19 -30 -6 -200 -15 -379 -20 -196 -5 -336 -13 -353 -20 -16 -6
-66 -11 -113 -11 l-84 0 -1 -162 c0 -90 -2 -171 -4 -181 -19 -103 -25 -200
-29 -490 -3 -252 -7 -341 -16 -353 -9 -10 -15 -74 -18 -214 -4 -185 -3 -200
13 -200 9 0 19 -9 22 -20 3 -11 12 -20 19 -20 8 0 14 -5 14 -11 0 -5 14 -15
30 -20 17 -6 30 -15 30 -20 0 -5 11 -14 25 -19 14 -5 25 -13 25 -18 0 -4 16
-14 35 -21 19 -7 35 -17 35 -22 0 -5 15 -9 34 -9 54 0 54 -26 -1 -50 -43 -19
-65 -20 -445 -20 -318 0 -404 3 -426 14 -16 8 -75 15 -149 18 -90 4 -129 9
-147 22 -18 12 -48 16 -110 16 -62 0 -89 4 -100 15 -8 8 -30 15 -49 15 -59 0
-91 11 -111 38 -14 18 -16 27 -8 30 7 2 12 12 12 23 0 12 7 19 18 19 11 0 27
9 37 20 12 13 31 20 57 20 27 0 38 4 38 15 0 20 17 19 38 -1 12 -12 30 -15 75
-12 32 2 62 10 66 16 5 8 57 14 157 19 96 3 154 10 164 18 9 7 56 15 112 17
54 3 103 10 110 16 8 6 54 14 103 18 50 4 99 13 110 20 11 8 36 14 57 14 l38
0 0 101 c0 56 6 127 14 158 8 32 16 138 20 252 3 108 10 209 16 225 7 16 15
134 19 269 4 156 11 248 19 262 7 13 12 62 12 120 0 105 6 143 23 143 5 0 15
7 21 16 7 8 31 18 54 21 23 3 47 12 53 19 8 10 39 14 113 14 56 0 117 5 136
11 71 23 148 26 728 28 580 1 592 1 612 -19z m180 -787 c0 -43 -13 -65 -24
-37 -8 21 -8 89 1 97 12 12 23 -17 23 -60z m1195 -743 c22 -11 48 -20 58 -20
20 0 67 -38 67 -54 0 -5 8 -15 18 -22 16 -13 16 -15 0 -25 -10 -5 -18 -14 -18
-20 0 -18 -53 -59 -76 -59 -14 0 -24 -6 -24 -14 0 -9 -17 -15 -51 -18 -34 -4
-55 -11 -61 -22 -7 -12 -25 -16 -81 -16 -48 0 -80 -5 -94 -15 -13 -9 -64 -18
-141 -24 -66 -5 -126 -12 -132 -16 -7 -5 -85 -11 -172 -15 -94 -5 -164 -12
-171 -19 -16 -16 -180 -15 -175 2 3 6 22 13 44 15 21 2 45 8 52 14 7 6 38 16
70 22 43 9 58 17 61 31 5 29 -27 45 -90 45 -41 0 -58 4 -63 15 -3 9 -18 15
-40 15 -19 0 -41 3 -50 6 -21 8 -21 63 -1 70 18 7 20 47 3 73 -9 15 -8 24 5
45 l17 26 503 0 c483 0 504 -1 542 -20z m-945 -734 c0 -63 -12 -92 -24 -60 -8
21 -8 109 1 117 17 17 23 2 23 -57z m39 -422 c1 -122 5 -169 16 -190 11 -21
15 -60 14 -144 -2 -180 -14 -196 -23 -31 -6 102 -12 149 -22 158 -10 10 -15
44 -16 111 -3 128 3 285 10 297 13 21 20 -47 21 -201z m-1037 156 c7 -11 18
-20 25 -20 7 0 16 -8 22 -17 9 -17 32 -18 285 -16 165 2 276 -1 276 -6 0 -5 9
-13 20 -16 15 -5 20 -15 20 -42 0 -26 -5 -36 -20 -40 -32 -8 -24 -31 13 -35
27 -2 33 -8 35 -30 2 -15 -4 -38 -12 -50 -11 -15 -16 -45 -16 -88 0 -53 -4
-69 -20 -83 -12 -10 -20 -29 -20 -47 0 -16 -4 -30 -10 -30 -5 0 -15 -21 -21
-46 -7 -25 -18 -48 -25 -51 -8 -3 -14 -11 -14 -18 0 -22 -41 -86 -87 -135 -23
-25 -43 -48 -43 -52 0 -5 -9 -8 -21 -8 -12 0 -23 -8 -26 -20 -3 -11 -12 -20
-19 -20 -8 0 -14 -9 -14 -20 0 -11 -6 -20 -14 -20 -8 0 -18 -10 -22 -22 -6
-22 -20 -40 -56 -76 -10 -9 -18 -20 -18 -24 0 -5 -9 -18 -21 -30 -63 -69 -85
-88 -99 -88 -9 0 -26 -9 -38 -20 -27 -25 -52 -26 -52 -1 0 10 -7 21 -14 24
-13 5 -13 10 0 35 11 24 14 67 12 209 l-3 178 -62 3 c-67 3 -71 0 -51 -43 9
-19 19 -25 45 -25 l33 0 0 -90 c0 -71 -3 -90 -14 -90 -8 0 -17 14 -21 33 -4
17 -12 38 -19 46 -8 11 -8 15 2 18 16 6 16 33 -1 33 -8 0 -22 -9 -31 -19 -14
-16 -17 -32 -13 -88 3 -37 8 -84 11 -103 4 -19 8 -51 9 -70 l2 -35 -58 3 c-51
2 -62 6 -93 37 -19 19 -39 35 -44 35 -6 0 -10 6 -10 14 0 8 -9 18 -20 21 -11
3 -20 13 -20 21 0 8 -7 14 -15 14 -8 0 -15 4 -15 9 0 4 -10 19 -22 33 -13 13
-32 37 -43 52 -25 34 -74 94 -97 118 -10 10 -18 22 -18 27 0 5 -6 11 -14 14
-8 3 -17 19 -21 36 -4 17 -13 31 -21 31 -8 0 -14 9 -14 20 0 11 -9 28 -20 37
-11 10 -20 25 -20 35 0 10 -7 18 -15 18 -8 0 -17 14 -21 35 -3 20 -12 35 -20
35 -8 0 -14 8 -14 19 0 10 -9 30 -20 44 -11 14 -20 32 -20 40 0 8 -7 20 -15
27 -8 7 -15 27 -15 45 0 40 29 62 86 65 58 3 64 1 64 -15 0 -8 7 -15 15 -15
10 0 15 -11 15 -35 0 -25 4 -35 15 -35 9 0 18 -12 22 -30 3 -16 9 -30 13 -30
6 0 25 -15 83 -65 9 -8 27 -15 39 -15 12 0 30 -8 41 -17 15 -15 42 -19 133
-21 110 -4 114 -3 114 17 0 12 6 21 15 21 8 0 15 6 15 13 0 8 11 27 25 43 14
16 25 32 25 37 0 4 14 7 30 7 18 0 30 -5 30 -13 0 -7 9 -20 20 -30 11 -9 20
-26 20 -37 0 -14 7 -20 21 -20 14 0 19 -5 17 -17 -3 -15 -17 -18 -96 -21 -73
-2 -92 -6 -92 -18 0 -12 21 -14 130 -13 91 1 135 5 147 15 10 7 38 14 63 14
34 0 48 5 58 20 8 13 23 20 42 20 17 0 30 5 30 11 0 6 16 25 35 43 19 19 35
38 35 43 0 6 9 18 20 28 11 10 20 24 20 32 0 7 7 16 15 19 17 7 20 49 5 59 -5
3 -10 1 -10 -4 0 -14 -62 -77 -122 -125 -45 -36 -50 -37 -123 -38 -67 0 -79 3
-99 24 -34 35 -38 66 -13 99 16 23 18 32 9 41 -9 9 -12 8 -12 -5 0 -11 -8 -17
-21 -17 -12 0 -37 -9 -56 -21 -28 -18 -43 -20 -88 -14 -38 4 -55 11 -55 21 0
8 -7 14 -15 14 -9 0 -18 7 -21 15 -8 20 -158 22 -152 3 3 -7 19 -14 36 -16 18
-2 32 -8 32 -13 0 -5 11 -14 25 -19 33 -13 34 -57 1 -87 -21 -20 -34 -23 -114
-23 -67 0 -94 4 -106 15 -8 8 -22 15 -30 15 -9 0 -24 8 -34 18 -10 10 -26 21
-35 25 -9 3 -17 13 -17 20 0 8 -9 22 -20 32 -25 23 -26 45 -1 52 11 3 22 11
25 19 3 8 16 14 30 14 41 0 58 10 45 26 -6 8 -18 14 -25 14 -23 0 -16 27 9 34
12 3 57 6 100 6 60 0 79 3 83 15 4 8 13 15 20 15 8 0 17 6 20 14 3 8 19 20 35
26 16 7 29 16 29 21 0 5 9 9 20 9 11 0 20 6 20 13 1 24 63 55 112 56 38 1 51
-3 60 -19z m-1457 -320 c0 -68 -4 -116 -10 -118 -12 -3 -19 284 -8 348 7 43 8
42 13 -35 3 -44 6 -132 5 -195z m18 -147 c-8 -3 -13 -26 -13 -63 0 -42 -4 -59
-15 -64 -8 -3 -15 -14 -15 -25 0 -25 -20 -71 -32 -71 -4 0 -8 -9 -8 -20 0 -11
-5 -20 -10 -20 -6 0 -16 -12 -22 -26 -11 -22 -9 -28 9 -42 30 -24 35 -72 8
-72 -8 0 -15 -7 -15 -15 0 -8 -8 -15 -19 -15 -10 0 -21 -9 -24 -20 -6 -24 -37
-27 -37 -4 0 9 9 18 20 21 11 3 20 12 20 19 0 8 7 14 15 14 8 0 15 9 15 20 0
11 -7 20 -15 20 -8 0 -24 9 -35 20 -11 11 -20 27 -20 35 0 8 9 15 20 15 11 0
20 7 20 15 0 8 7 15 15 15 8 0 15 9 15 20 0 11 9 25 20 32 13 9 20 24 20 45 0
21 6 36 18 42 14 7 19 23 20 58 2 46 20 74 46 72 6 0 5 -3 -1 -6z m-228 -517
c-4 -22 -9 -43 -12 -46 -6 -7 -33 31 -33 47 0 8 -12 13 -30 13 -27 0 -38 9
-25 21 2 3 27 6 55 6 l51 1 -6 -42z m230 -43 c-24 -39 -83 -93 -101 -93 -8 0
-14 -7 -14 -15 0 -8 -9 -15 -20 -15 -13 0 -20 -7 -20 -20 0 -14 -7 -20 -23
-20 -13 0 -32 -9 -42 -20 -10 -11 -24 -20 -32 -20 -7 0 -13 -5 -13 -10 0 -6
-11 -15 -25 -20 -14 -5 -25 -14 -25 -19 0 -5 -13 -14 -30 -20 -16 -5 -30 -15
-30 -20 0 -6 -13 -11 -30 -11 -19 0 -30 -5 -30 -14 0 -16 -21 -26 -56 -26 -15
0 -24 -6 -24 -15 0 -10 -10 -15 -27 -15 -16 0 -41 -9 -58 -20 -16 -11 -42 -20
-57 -20 -15 0 -31 -6 -35 -14 -4 -7 -28 -16 -52 -19 -25 -3 -48 -12 -53 -21
-6 -11 -24 -16 -58 -16 -36 0 -50 -4 -50 -14 0 -8 -12 -17 -27 -20 -30 -8 -96
-75 -133 -135 -14 -22 -31 -41 -37 -41 -7 0 -13 -8 -13 -19 0 -10 -9 -21 -20
-24 -11 -3 -20 -13 -20 -23 0 -9 -7 -24 -15 -33 -48 -53 -55 -62 -55 -71 0 -5
-4 -10 -10 -10 -5 0 -16 -16 -24 -35 -8 -19 -20 -35 -25 -35 -6 0 -11 -7 -11
-15 0 -9 -6 -18 -14 -21 -8 -3 -18 -19 -21 -35 -4 -16 -13 -29 -21 -29 -8 0
-14 -9 -14 -19 0 -10 -6 -21 -14 -24 -8 -3 -17 -19 -21 -36 -4 -17 -13 -31
-21 -31 -8 0 -14 -10 -14 -23 0 -13 -9 -32 -20 -42 -11 -10 -20 -29 -20 -42 0
-13 -6 -23 -14 -23 -8 0 -17 -15 -20 -34 -4 -19 -13 -39 -21 -46 -8 -7 -15
-26 -15 -42 0 -16 -6 -31 -14 -34 -8 -3 -17 -20 -20 -39 -4 -18 -13 -36 -21
-39 -9 -3 -15 -18 -15 -35 0 -16 -6 -31 -15 -35 -8 -3 -15 -16 -15 -29 0 -13
-9 -34 -20 -47 -12 -13 -20 -37 -20 -57 0 -21 -6 -36 -15 -39 -8 -4 -15 -18
-15 -34 0 -15 -9 -39 -20 -53 -11 -14 -20 -36 -20 -49 0 -13 -9 -31 -20 -41
-12 -10 -20 -29 -20 -46 0 -17 -6 -34 -13 -38 -8 -4 -17 -25 -20 -47 -7 -44
-11 -51 -26 -41 -17 10 -14 85 4 91 8 4 15 18 15 33 0 37 19 101 30 101 6 0
10 16 10 36 0 21 8 47 20 61 11 14 20 38 20 53 0 15 7 33 15 40 8 7 15 23 15
36 0 13 9 32 20 41 11 10 20 30 20 45 0 16 4 28 10 28 5 0 14 17 20 39 5 21
17 44 25 51 8 7 15 19 15 26 0 16 39 94 57 112 7 7 13 22 13 32 0 10 7 20 15
24 8 3 15 17 15 32 0 17 6 28 20 31 14 4 20 14 20 35 0 21 6 31 20 35 11 3 20
14 20 24 0 11 9 28 20 39 11 11 20 27 20 35 0 8 5 15 10 15 6 0 15 11 20 25 5
14 14 25 20 25 5 0 10 9 10 20 0 11 9 25 20 32 11 7 20 19 20 26 0 7 6 15 14
18 8 3 18 19 21 35 4 16 13 29 21 29 8 0 14 9 14 20 0 11 7 20 15 20 8 0 15 9
15 20 0 11 9 25 20 32 11 7 20 20 20 30 0 9 9 20 20 23 11 3 20 13 20 21 0 8
5 14 11 14 5 0 15 13 20 29 6 16 17 32 25 35 8 3 14 10 14 15 0 13 48 61 60
61 6 0 10 9 10 20 0 13 7 20 20 20 11 0 20 6 20 14 0 8 14 17 31 21 17 4 33
13 36 21 3 8 18 14 34 14 16 0 32 6 35 14 3 8 17 17 32 21 15 3 40 20 56 38
33 35 87 67 116 67 10 0 35 7 54 16 37 18 69 13 60 -10 -11 -29 20 -28 82 5
35 18 64 39 64 46 0 8 12 13 31 13 22 0 32 5 36 20 3 11 14 20 24 20 11 0 27
9 36 20 10 11 25 20 35 20 10 0 18 7 18 15 0 8 9 15 20 15 11 0 20 6 20 14 0
8 14 17 30 21 17 4 30 13 30 21 0 8 10 14 25 14 14 0 24 3 24 8 -3 19 2 25 12
15 9 -9 8 -19 -6 -40z m2655 -18 c4 -24 11 -31 35 -33 16 -2 33 -9 37 -15 6
-9 13 -8 29 2 20 12 24 11 34 -3 7 -9 25 -16 41 -16 44 0 74 -11 74 -26 0 -9
-12 -14 -37 -14 -47 0 -62 -9 -65 -40 -3 -22 3 -26 39 -35 23 -6 48 -16 55
-23 6 -6 26 -12 43 -12 16 0 41 -6 55 -13 15 -8 46 -17 71 -20 25 -3 58 -13
74 -21 17 -9 55 -16 86 -16 41 0 58 -4 63 -15 3 -8 15 -15 26 -15 11 0 29 -9
40 -20 11 -11 25 -20 30 -20 6 0 13 -7 16 -15 4 -8 11 -15 18 -15 6 0 29 -21
51 -47 22 -25 48 -53 58 -62 9 -8 17 -21 17 -28 0 -7 6 -13 13 -13 12 0 23
-17 49 -72 7 -16 18 -28 25 -28 7 0 13 -8 13 -18 0 -9 9 -23 20 -30 11 -7 20
-23 20 -37 0 -15 6 -25 14 -25 8 0 17 -13 21 -29 3 -16 13 -32 21 -35 8 -3 14
-15 14 -26 0 -11 6 -23 14 -26 8 -3 18 -19 21 -35 4 -16 13 -29 21 -29 9 0 14
-11 14 -30 0 -18 6 -33 15 -36 8 -3 17 -21 21 -40 3 -19 12 -34 20 -34 9 0 14
-11 14 -30 0 -19 7 -33 20 -40 13 -7 20 -21 20 -40 0 -19 5 -30 14 -30 9 0 15
-16 19 -47 3 -27 11 -50 21 -55 10 -6 16 -22 16 -44 0 -21 6 -37 15 -40 8 -3
17 -25 21 -50 3 -24 12 -49 20 -55 8 -6 14 -27 14 -46 0 -21 6 -36 15 -39 8
-4 15 -17 15 -30 0 -15 -6 -24 -15 -24 -9 0 -15 9 -15 24 0 13 -6 29 -14 35
-8 7 -17 27 -20 46 -4 21 -13 35 -21 35 -10 0 -15 11 -15 35 0 28 -4 35 -20
35 -16 0 -20 7 -20 33 0 20 -8 39 -20 50 -11 9 -20 28 -20 41 0 13 -7 29 -15
36 -8 7 -15 23 -15 36 0 12 -7 30 -16 38 -8 9 -18 32 -21 51 -3 20 -11 35 -19
35 -9 0 -14 11 -14 30 0 18 -6 33 -15 36 -8 3 -17 21 -21 40 -3 19 -12 34 -20
34 -8 0 -14 8 -14 19 0 10 -9 30 -20 44 -11 14 -20 30 -20 35 0 5 -6 12 -14
15 -7 3 -16 19 -19 36 -4 18 -13 31 -22 31 -8 0 -15 9 -15 20 0 11 -7 20 -15
20 -8 0 -15 7 -15 15 0 8 -9 19 -20 25 -11 6 -20 19 -20 30 0 11 -9 24 -20 30
-11 6 -20 17 -20 25 0 8 -7 15 -15 15 -8 0 -15 4 -15 10 0 13 -117 130 -130
130 -5 0 -10 9 -10 20 0 13 -7 20 -20 20 -11 0 -20 6 -20 14 0 10 -16 17 -47
21 -27 4 -62 13 -80 21 -17 8 -56 14 -86 14 -34 0 -59 5 -66 14 -6 7 -39 16
-76 18 -36 3 -76 13 -90 22 -14 9 -45 16 -72 16 -27 0 -57 6 -68 14 -11 7 -33
16 -50 20 -37 9 -45 21 -45 69 0 26 -4 37 -15 37 -10 0 -15 10 -15 31 0 34
-32 72 -70 84 -30 9 -25 19 23 43 56 28 81 25 87 -13z m1480 -1697 c0 -16 -3
-19 -11 -11 -6 6 -8 16 -5 22 11 17 16 13 16 -11z"/>
<path d="M3900 3360 c-6 -12 -21 -20 -35 -20 -19 0 -25 -5 -25 -21 0 -19 4
-21 32 -15 39 8 98 46 98 64 0 21 -58 15 -70 -8z"/>
<path d="M3670 3361 c0 -10 40 -22 52 -15 18 11 6 24 -22 24 -16 0 -30 -4 -30
-9z"/>
<path d="M3815 3079 c-10 -15 3 -25 16 -12 7 7 7 13 1 17 -6 3 -14 1 -17 -5z"/>
<path d="M3776 3028 c-9 -34 -8 -38 9 -38 10 0 15 10 15 30 0 35 -15 40 -24 8z"/>
<path d="M2860 2966 c0 -9 7 -12 20 -9 11 3 20 9 20 14 0 5 -9 9 -20 9 -11 0
-20 -6 -20 -14z"/>
<path d="M3740 2935 c0 -9 5 -15 11 -13 6 2 11 8 11 13 0 5 -5 11 -11 13 -6 2
-11 -4 -11 -13z"/>
<path d="M2950 2930 c0 -5 16 -10 35 -10 19 0 35 5 35 10 0 6 -16 10 -35 10
-19 0 -35 -4 -35 -10z"/>
<path d="M3062 2898 c5 -14 35 -20 66 -13 35 8 16 25 -29 25 -27 0 -39 -4 -37
-12z"/>
<path d="M2890 2865 c0 -8 5 -15 10 -15 6 0 10 7 10 15 0 8 -4 15 -10 15 -5 0
-10 -7 -10 -15z"/>
<path d="M2925 2830 c-3 -5 -1 -10 4 -10 6 0 11 5 11 10 0 6 -2 10 -4 10 -3 0
-8 -4 -11 -10z"/>
</g>
</svg>
